<?xml version="1.0" encoding="UTF-8"?>
<svg width="24px" height="22px" viewBox="0 0 24 22" version="1.1" xmlns="http://www.w3.org/2000/svg" xmlns:xlink="http://www.w3.org/1999/xlink">
    <title>1E0DF2C5-6C73-43A3-8989-FEF663395D02</title>
    <defs>
        <path d="M11.9945406,-1.77635684e-15 C13.4719456,-1.77635684e-15 14.7896722,0.769497611 15.5188701,2.05985082 L15.5188701,2.05985082 L22.3044399,13.8076157 L21.0163678,14.3147846 L14.3304069,2.73886402 C13.8445284,1.87888201 12.9723805,1.36867164 11.9945406,1.36867164 C11.0174611,1.36867164 10.1453131,1.87888201 9.6624762,2.73278104 L9.6624762,2.73278104 L1.71885808,16.4856499 C1.2428645,17.3357471 1.2542701,18.3561678 1.75307487,19.2085461 C2.24427592,20.0457169 3.11338241,20.5460424 4.07905629,20.5460424 L4.07905629,20.5460424 L19.9100249,20.5460424 C20.8855836,20.5460424 21.7630542,20.0350717 22.2565364,19.1796519 C22.7477374,18.328034 22.7530601,17.3213 22.2709835,16.4856499 L22.2709835,16.4856499 L21.8383312,15.7366824 L23.0967487,15.1808496 L23.4556448,15.8013141 C24.1863634,17.0650542 24.1810408,18.5835194 23.4419581,19.8639877 C22.7005943,21.1482579 21.3805866,21.9147141 19.9100249,21.9147141 L19.9100249,21.9147141 L4.07905629,21.9147141 C2.62218136,21.9147141 1.31129808,21.1611843 0.572215398,19.8997253 C-0.175231391,18.6238191 -0.191199227,17.0947088 0.52887413,15.8089178 L0.52887413,15.8089178 L8.474013,2.05376783 C9.20016934,0.770257984 10.5171356,-1.77635684e-15 11.9945406,-1.77635684e-15 Z M12.9569845,16.0496879 L12.9569845,17.8963702 L10.8512055,17.8963702 L10.8512055,16.0496879 L12.9569845,16.0496879 Z M13.026443,5.73040004 L12.7638559,14.4896526 L11.0265459,14.4896526 L10.7453236,5.73040004 L13.026443,5.73040004 Z" id="path-1"></path>
    </defs>
    <g id="DSK-Safeversion-1" stroke="none" stroke-width="1" fill="none" fill-rule="evenodd">
        <g id="3.3-Módulo-de-consulta-no-encontrado" transform="translate(-671.000000, -202.000000)">
            <g id="Group-28-Copy-2" transform="translate(435.000000, 149.000000)">
                <g id="Color/Liberty-Blue" transform="translate(236.000000, 53.000000)">
                    <mask id="mask-2" fill="white">
                        <use xlink:href="#path-1"></use>
                    </mask>
                    <use id="Mask" fill="#13112B" xlink:href="#path-1"></use>
                    <g mask="url(#mask-2)" fill="#EE7000" id="Rectangle">
                        <g transform="translate(-38.000000, -39.000000)">
                            <rect x="0" y="0" width="100" height="100"></rect>
                        </g>
                    </g>
                </g>
            </g>
        </g>
    </g>
</svg>