<?xml version="1.0" encoding="UTF-8"?>
<svg width="20px" height="20px" viewBox="0 0 20 20" version="1.1" xmlns="http://www.w3.org/2000/svg" xmlns:xlink="http://www.w3.org/1999/xlink">
    <title>CC4B3832-BCCF-48C6-A35A-F38534FEDAC5</title>
    <defs>
        <path d="M8.06655287,11.9334471 C12.5141983,11.9334471 16.1324712,15.5523545 16.1324712,20 L16.1324712,20 L14.9902595,20 C14.9902595,17.3227827 13.462234,14.9977473 11.2336521,13.8460172 L11.2336521,13.8460172 L9.34075348,15.7389158 C8.99364803,16.0853867 8.53866704,16.2586221 8.08305148,16.2586221 C7.62807049,16.2586221 7.17245493,16.0853867 6.82598405,15.7389158 L6.82598405,15.7389158 L4.92166331,13.8345951 C2.68039013,14.9818833 1.1422117,17.3138988 1.1422117,20 L1.1422117,20 L1.77635684e-15,20 C1.77635684e-15,15.5523545 3.61890741,11.9334471 8.06655287,11.9334471 Z M8.06655287,13.0756588 C7.37297654,13.0756588 6.70414813,13.179727 6.07212432,13.3694611 L6.07212432,13.3694611 L7.63378155,14.9311183 C7.88126075,15.1785975 8.28484222,15.1792321 8.53295598,14.9311183 L8.53295598,14.9311183 L10.0869985,13.3770758 C9.4473599,13.1816307 8.76901307,13.0756588 8.06655287,13.0756588 Z M8.00157371,0 C10.9618057,0 13.3706033,2.40879757 13.3706033,5.36902956 C13.3706033,8.32735787 10.9618057,10.7342518 8.00157371,10.7342518 C5.04197628,10.7342518 2.63444784,8.32735787 2.63444784,5.36902956 C2.63444784,2.40879757 5.04197628,0 8.00157371,0 Z M8.00157371,1.1422117 C5.6720964,1.1422117 3.77665954,3.03828313 3.77665954,5.36902956 C3.77665954,7.69787231 5.6720964,9.59204005 8.00157371,9.59204005 C10.3323201,9.59204005 12.2283916,7.69787231 12.2283916,5.36902956 C12.2283916,3.03828313 10.3323201,1.1422117 8.00157371,1.1422117 Z" id="path-1"></path>
    </defs>
    <g id="DSK-Safeversion-1" stroke="none" stroke-width="1" fill="none" fill-rule="evenodd">
        <g id="3.2-Módulo-de-consulta-resultado" transform="translate(-235.000000, -562.000000)">
            <g id="Group-2" transform="translate(235.000000, 562.000000)">
                <polygon id="Path-2" fill="#FFD000" points="6.95849609 13.1054688 12.4765625 13.1054688 10 15.9018555"></polygon>
                <g id="Icons/User" transform="translate(1.000000, 0.000000)">
                    <g id="Color/Liberty-Blue" transform="translate(0.666667, 0.000000)">
                        <mask id="mask-2" fill="white">
                            <use xlink:href="#path-1"></use>
                        </mask>
                        <use id="Mask" fill="#13112B" xlink:href="#path-1"></use>
                        <g mask="url(#mask-2)" fill="#1A1446" id="Rectangle">
                            <g transform="translate(-33.333333, -31.666667)">
                                <rect x="0" y="0" width="83.3333333" height="83.3333333"></rect>
                            </g>
                        </g>
                    </g>
                </g>
            </g>
        </g>
    </g>
</svg>