<?xml version="1.0" encoding="UTF-8"?>
<svg width="25px" height="24px" viewBox="0 0 25 24" version="1.1" xmlns="http://www.w3.org/2000/svg" xmlns:xlink="http://www.w3.org/1999/xlink">
    <title>13F1C0BA-AC5C-4F25-A42F-1E4B9B0C4B8B</title>
    <defs>
        <path d="M12.0638298,0 C18.726499,0 24.1276596,5.372583 24.1276596,12 C24.1276596,18.627417 18.726499,24 12.0638298,24 C5.40116057,24 0,18.627417 0,12 C0,5.372583 5.40116057,0 12.0638298,0 Z M15.529035,4.8 L13.5105966,4.8 C11.3413928,4.8 10.3632636,5.7503599 10.3632636,7.56945888 L10.3632636,9.50802361 L8.84680851,9.50802361 L8.84680851,11.9696393 L10.3632636,11.9696393 L10.3632636,19.2 L13.2786281,19.2 L13.2786281,11.9391374 L15.3123985,11.9391374 L15.529035,9.50802361 L13.2786281,9.50802361 L13.2786281,8.12329417 C13.2786281,7.54997156 13.3941864,7.32318434 13.9515355,7.32318434 L15.529035,7.32318434 L15.529035,4.8 Z" id="path-1"></path>
    </defs>
    <g id="MOB-Safeversion-1" stroke="none" stroke-width="1" fill="none" fill-rule="evenodd">
        <g id="1.2-validación-" transform="translate(-116.000000, -858.000000)">
            <g id="Components/Footer-Copy" transform="translate(0.000000, 695.000000)">
                <rect id="Rectangle-5" fill="#1A1446" fill-rule="nonzero" x="0" y="0" width="378" height="251"></rect>
                <g id="icon" transform="translate(116.617021, 163.000000)">
                    <mask id="mask-2" fill="white">
                        <use xlink:href="#path-1"></use>
                    </mask>
                    <use id="Mask" fill="#1A1446" xlink:href="#path-1"></use>
                    <g id="Color" mask="url(#mask-2)" fill="#FFFFFF">
                        <rect id="Rectangle" x="0" y="0" width="24.1276596" height="24"></rect>
                    </g>
                </g>
            </g>
        </g>
    </g>
</svg>