<?xml version="1.0" encoding="UTF-8"?>
<svg width="20px" height="22px" viewBox="0 0 20 22" version="1.1" xmlns="http://www.w3.org/2000/svg" xmlns:xlink="http://www.w3.org/1999/xlink">
    <title>5FD8891E-2200-4DEF-8EC6-77C9A4E3CFB5</title>
    <defs>
        <path d="M7.47364638,0.603328093 C8.56432678,0.603328093 9.4513656,1.49755425 9.4513656,2.5966199 L9.4513656,2.5966199 L11.560254,2.5966199 C11.9166267,2.5966199 12.2053186,2.8853118 12.2053186,3.24108564 L12.2053186,3.24108564 L12.2053186,3.51540284 L13.8212746,3.51600179 C14.0255151,3.52438703 14.225563,3.59566159 14.3764974,3.74539805 C14.5292286,3.89633241 14.6166747,4.10776029 14.6166747,4.32457869 L14.6166747,4.32457869 L14.6166747,19.7947512 C14.6166747,20.2403669 14.2603019,20.6033281 13.8224724,20.6033281 L13.8224724,20.6033281 L1.98490656,20.6033281 L1.98490656,19.5252256 L13.5385721,19.5252256 L13.5385721,4.59410433 L1.07810254,4.58931276 L1.07450886,20.593146 L0.793603258,20.593146 C0.355773838,20.593146 -1.77635684e-15,20.2301848 -1.77635684e-15,19.7845691 L-1.77635684e-15,19.7845691 L-1.77635684e-15,4.31978713 C-1.77635684e-15,3.87357246 0.355773838,3.51121022 0.793603258,3.51121022 L0.793603258,3.51121022 L2.49940105,3.51180917 L2.49940105,3.24108564 C2.49940105,2.8853118 2.78809296,2.5966199 3.14386679,2.5966199 L3.14386679,2.5966199 L5.49532822,2.5966199 C5.49532822,1.49755425 6.38296598,0.603328093 7.47364638,0.603328093 Z M10.186392,8.34829695 L11.0626497,8.9759922 L6.93651174,14.730065 C6.76521322,14.9612581 6.50227599,15.0828441 6.23814087,15.0828441 C6.06264974,15.0828441 5.88596071,15.028939 5.73442741,14.918134 L3.14218975,13.0218715 L3.77827024,12.1516031 L6.19262099,13.9172955 L10.186392,8.34829695 Z M7.47364638,1.68143063 C6.97712027,1.68143063 6.57343076,2.09170854 6.57343076,2.5966199 C6.57343076,3.10093231 6.97712027,3.51180917 7.47364638,3.51180917 C7.96957355,3.51180917 8.37326306,3.10093231 8.37326306,2.5966199 C8.37326306,2.09170854 7.96957355,1.68143063 7.47364638,1.68143063 Z" id="path-1"></path>
    </defs>
    <g id="DSK-Safeversion-1" stroke="none" stroke-width="1" fill="none" fill-rule="evenodd">
        <g id="3.2-Módulo-de-consulta-resultado" transform="translate(-455.000000, -561.000000)">
            <g id="Group-3" transform="translate(455.000000, 561.000000)">
                <circle id="Oval" fill="#FFD000" cx="10" cy="12" r="5"></circle>
                <g id="Icons/Checklist" transform="translate(2.000000, 0.000000)">
                    <g id="Color/Liberty-Blue" transform="translate(0.500000, 0.396672)">
                        <mask id="mask-2" fill="white">
                            <use xlink:href="#path-1"></use>
                        </mask>
                        <use id="Mask" fill="#13112B" xlink:href="#path-1"></use>
                        <g mask="url(#mask-2)" fill="#1A1446" id="Rectangle">
                            <g transform="translate(-34.166667, -31.666667)">
                                <rect x="0" y="0" width="83.3333333" height="83.3333333"></rect>
                            </g>
                        </g>
                    </g>
                </g>
            </g>
        </g>
    </g>
</svg>