<svg xmlns="http://www.w3.org/2000/svg" xmlns:xlink="http://www.w3.org/1999/xlink" width="173" height="200" viewBox="0 0 173 200">
  <defs>
    <clipPath id="clip-liberty">
      <rect width="173" height="200"/>
    </clipPath>
  </defs>
  <g id="liberty" clip-path="url(#clip-liberty)">
    <g id="Group_2" data-name="Group 2" transform="translate(19.134 2.606)">
      <path id="Path_1" data-name="Path 1" d="M147.28,327.525c16.6-25.863,37.625-47.571,80.014-49.254a127.476,127.476,0,0,0-2.614-43.826l16.887-20.1-20.3,7.237a68.461,68.461,0,0,0-5.428-9.65c2.01-6.635,4.121-13.068,6.131-19.7-4.356,3.417-8.812,6.635-13.167,10.052-7.376-6.982-14.6-11.037-21.713-12.665-1.675-5.227-3.049-10.454-4.725-15.681-1.206,4.557-2.714,9.114-3.92,13.671-13.811-2.607-26.193,1.146-37.594,9.248l-4.825-11.862c12.006-12.742-1.113-22.237,3.861-24.947-.685-2.092-2.761-2.325-5.321-2.008-5.287-6.927,26.772-7.429,10.943-25q-3.313,5.522-9.036,5.823c-.028-4.426-1.7-5.795-3.614-6.727a5.64,5.64,0,0,1-6.646,3.3c-11.174-2.5-30.787-1.434-20.963,19.092l-3.715,3.513a7.067,7.067,0,0,0-4.417-1.305,6.913,6.913,0,0,1,1.305,4.318c-7.192,13.008-3.76,19.525,3.514,23.693-1.991,1.832-1.121,3.188,1.706,4.217-1.289,3.916.552,6.359,3.815,8.132l.6,5.321q-3.313,5.171,2.209,7.128,1.606,7.028,10.441,6.024.5,4.367,1,8.734c-10.982,27.281-10.024,73.2,16.121,98,13.555-22.6,30.539-33.891,49.455-38.8-18.839,9-34.034,22.366-44.832,41.012Z" transform="translate(-94.449 -132.131)" fill="#071e3c" fill-rule="evenodd"/>
      <g id="Group_1" data-name="Group 1" transform="translate(4.776 5.485)">
        <path id="Path_2" data-name="Path 2" d="M225.029,240.732a18.259,18.259,0,0,1,10.642,1L229.045,207.9Q227.036,224.317,225.029,240.732Z" transform="translate(-145.718 -164.595)" fill="#fff" fill-rule="evenodd"/>
        <path id="Path_3" data-name="Path 3" d="M194.6,260.676l-15.561-25.8,21.083,18.172A12.744,12.744,0,0,0,194.6,260.676Z" transform="translate(-129.342 -174.198)" fill="#fff" fill-rule="evenodd"/>
        <path id="Path_4" data-name="Path 4" d="M255.275,255.2l20.28-20.481-12.349,26.906A30.954,30.954,0,0,0,255.275,255.2Z" transform="translate(-156.487 -174.143)" fill="#fff" fill-rule="evenodd"/>
        <path id="Path_5" data-name="Path 5" d="M275.7,277.454a34.44,34.44,0,0,1,4.116,9.136l19.979-18.975Z" transform="translate(-163.759 -185.856)" fill="#fff" fill-rule="evenodd"/>
        <path id="Path_6" data-name="Path 6" d="M202.606,288.789q-2.71-4.116,1.406-8.232c-.988-9.3,2.994-13.822,9.237-16.164,10.115-2.51,20.773,1.071,32.227,13.553,2.987,4.452,2.916,5.6,2.41,6.526l-5.321-5.823-3.112,3.313,6.124,5.622c-4.468,2.008-8.383.7-12.048-2.108-1.741-1.607-2.978-5.02-5.22-4.819a31.324,31.324,0,0,0-19.176-.4l1.305,2.811c7.229-2.636,14.892-.811,23.192,7.53,2.444,2.752,4.418,2.046,6.325.5l.7,3.213.8,1c3.179-1.908,5.12-2.109,3.414.3-2.108,1.741-3.815,4.886-6.325,4.317q-2.16-.9-1.506,2.209l8.333,19.377a67.208,67.208,0,0,0-24.8,6.626l-2.911-8.233c1.573-2.275,3.145-4.785,4.718-7.329-7.664,3.748-10.275,2.276-10.441-2.008.016-2.007.284-2.326,1.656-1.857,1.4-.068,2.354-1.84.352-1.808-1,.2-1.357.2-2.361.4-1.357.215-1.907-1.723-.952-1.757a11.747,11.747,0,0,0,4.317.1c1.733-.419,1.112-2.456-3.514-1.656-1.17.208-1.773-.661-1.2-1.405,1.071-.87,2.542-1.139,3.213-2.26-1.74-.368-2.729-1.838-5.22-1.1-.082-2.643.887-5.087,1.1-7.63.533-1.137.266-1.822-.8-1.305-2.122,1.636-3.394,2.02-3.112.1a6.112,6.112,0,0,1,1.2-5.12c2.012-1.53,2.013-3.536.9-3.514-2.791,1.041-4.081,3.434-4.92,7.027Zm6.827-17.57a6.988,6.988,0,0,0-2.811,7.229,13.131,13.131,0,0,1,4.417-3.414l-1.607-3.815Zm2.911-2.208q1.205,2.459,2.41,4.919a29.132,29.132,0,0,1,9.638.2q.5-2.51,1-5.02c-4.351-2.041-8.7-2.343-13.052-.1Zm15.963,6.224,8.232,5.02,2.711-3.915-8.935-5.823-2.008,4.719Zm-13,16.367c1.755,1.287,1.84.17,1.5-1.252h5.759c.6.985,2.3.067,3.605-.05.855.151,1.225-.833-.451-1.652-2.2-3.045-8.225-3.942-12.569-.9-1,1.018-.534,1.853.6,2.6A4.632,4.632,0,0,1,215.3,291.6Z" transform="translate(-137.351 -184.44)" fill="#fff" fill-rule="evenodd"/>
        <path id="Path_7" data-name="Path 7" d="M194.295,288.469a32.224,32.224,0,0,0-1.2,7.027l-6.727-4.618q.051-3.213.1-6.425Z" transform="translate(-131.951 -191.851)" fill="#fff" fill-rule="evenodd"/>
        <path id="Path_8" data-name="Path 8" d="M272.151,315.323c-3.488,2.917-7.886,5.613-4.819,10.442q3.364,6.375,6.727,12.75l6.526.2a125.118,125.118,0,0,1-7.63-14.759A15.958,15.958,0,0,1,272.151,315.323Z" transform="translate(-160.412 -202.842)" fill="#fff" fill-rule="evenodd"/>
        <path id="Path_9" data-name="Path 9" d="M209.985,356.361c-2.159-.016-4.166-.919-5.522-4.417-1.506-3.414-2.911-7.027-4.417-10.441-17.2-.837-11.512,20.414-17.269,30.621C189.462,366.241,198.214,360.9,209.985,356.361Z" transform="translate(-130.674 -212.155)" fill="#fff" fill-rule="evenodd"/>
        <path id="Path_10" data-name="Path 10" d="M185.605,318.565c-31.826-1.807-17.268,39.757-25.9,59.636,21.351-17.871,5.857-48.894,31.524-48.492Z" transform="translate(-122.459 -203.976)" fill="#fff" fill-rule="evenodd"/>
        <path id="Path_11" data-name="Path 11" d="M165.557,273.148a30.1,30.1,0,0,1-4.021-13.671c-.693-3.551-2.294-7.1-3.618-10.655l-15.227-39.753a8.215,8.215,0,0,0-5.521-5.723,24.482,24.482,0,0,1-6.626-1.807c-1.106-.884-2.144.954-1.506,2.611.567,1.6,1.948,2.65,4.518,2.911,1.354.319,2.156.889,1.807,2.611.493,3.473-1.1,9.1,1.406,9.939,2.108-.134,2.945.97.7,1.807q.753,18.272,1.506,36.544a43.869,43.869,0,0,0,2.008,7.631l8.233,25.9C152.16,280.5,157.527,274.233,165.557,273.148Z" transform="translate(-111.47 -162.247)" fill="#fff" fill-rule="evenodd"/>
        <path id="Path_12" data-name="Path 12" d="M120.515,203.948a40.655,40.655,0,0,0-7.962,2.8c-.22.8-.189,1.6,1.6,2.4l-2,.2q-.1,1.7-.2,3.405h3.806l-2.3,2.053a1.654,1.654,0,0,0-.05,1.9l2.1,3.355c.73-3.489,2.491-4.774,4.958-5.358l-.1-2.8h2.3l.05-3.556-3.956-.1c.685-.35,1.419-.952,2.1-1.3C120.765,205.868,120.615,205.033,120.515,203.948Z" transform="translate(-105.457 -163.187)" fill="#fff" fill-rule="evenodd"/>
        <path id="Path_13" data-name="Path 13" d="M122.609,234.244l-.05-8.162c.017-1.477.283-2.663,1.1-3.2l3.706-2.754,3.755,4.807a6.535,6.535,0,0,1,1,3.806q.025,2.854.05,5.709c2.43,1.9,1.377,4.691-.15,3.356-2.938-1.436-5.875-1.871-8.814-.1C120.955,238.273,120.4,235.092,122.609,234.244Z" transform="translate(-108.753 -168.946)" fill="#fff" fill-rule="evenodd"/>
        <path id="Path_14" data-name="Path 14" d="M117.679,197.892l-.05-3.705c6-5.586,13.052-4.964,17.577.8q-.1,1.628-.2,3.255Q126.642,191.157,117.679,197.892Z" transform="translate(-107.478 -158.332)" fill="#fff" fill-rule="evenodd"/>
        <path id="Path_15" data-name="Path 15" d="M103.1,187.476a6.514,6.514,0,0,1-.9-5.809c2.346-3.138,2.4-5.541,1.4-7.611,2.81-1.386,4,3.748,6.81-3.906,3.58.536,5.934,3.036,8.863-.851.5-1.035,1.7-2.121,2.7.05,1.185,2.02,3.421,2.737,6.409.952,2.883-1.948,3.573.122,3.806,2.2-.433,2.871,3.038,2.237,5.759,1.553-2.236,2.488,3.338,8.78.651,13.32C136.591,173.108,105.085,173.234,103.1,187.476Z" transform="translate(-101.865 -150.42)" fill="#fff" fill-rule="evenodd"/>
        <path id="Path_16" data-name="Path 16" d="M117.476,154.42c-2.424-6.393.772-10.85,4.857-12.369,5.625-2.17,11,3.822,17.326-1.4a6.517,6.517,0,0,1-.751,4.407c5.32,2.189,10.035,1.533,14.021-2.554,1.515,10.614-14.687,7.934-16.224,14.873l-2.4-1.9q-3.831,3.806-6.66-.6c-.638-.8-1.765-.938-3.211-.449-1.547.524-1.963,1.536-3.243,2.354C119.934,157.575,118.672,157.254,117.476,154.42Z" transform="translate(-107.125 -140.649)" fill="#fff" fill-rule="evenodd"/>
      </g>
    </g>
  </g>
</svg>
