<?xml version="1.0" encoding="UTF-8"?>
<svg width="25px" height="24px" viewBox="0 0 25 24" version="1.1" xmlns="http://www.w3.org/2000/svg" xmlns:xlink="http://www.w3.org/1999/xlink">
    <title>57F23CD9-FC02-4177-8BD5-005D3B17F71D</title>
    <defs>
        <path d="M12.0638298,-6.25277607e-14 C18.7262809,-6.25277607e-14 24.1276596,5.3728 24.1276596,12 C24.1276596,18.6272 18.7262809,24 12.0638298,24 C5.40137872,24 -2.85728887e-15,18.6272 -2.85728887e-15,12 C-2.85728887e-15,5.3728 5.40137872,-6.25277607e-14 12.0638298,-6.25277607e-14 Z M8.84761277,10.0432 L6.32225106,10.0432 L6.32225106,17.6 L8.84761277,17.6 L8.84761277,10.0432 Z M15.0468128,9.8656 C13.7053149,9.8656 13.1061447,10.6 12.7707702,11.1136 L12.7707702,11.1136 L12.7707702,10.0432 L10.2446043,10.0432 C10.2538934,10.23812 10.2580735,10.8972565 10.2592521,11.7505496 L10.2591967,13.0091136 C10.2572713,14.69148 10.2492488,16.5868725 10.2459897,17.3036 L10.2451315,17.4891318 C10.2450191,17.5129827 10.244923,17.5331628 10.2448449,17.5494692 L10.2446043,17.5992 L12.7707702,17.5992 L12.7707702,13.3792 C12.7707702,13.1528 12.7868553,12.928 12.8544128,12.7664 C13.037783,12.3152 13.4519745,11.848 14.1500681,11.848 C15.0637021,11.848 15.428834,12.5408 15.428834,13.556 L15.428834,13.556 L15.428834,17.6 L17.955,17.6 L17.955,13.2656 C17.955,10.9456 16.7092085,9.8656 15.0468128,9.8656 Z M7.60182128,6.4 C6.73805106,6.4 6.17265957,6.964 6.17265957,7.7056 C6.17265957,8.4312 6.7211617,9.0112 7.56884681,9.0112 L7.56884681,9.0112 L7.58493191,9.0112 C8.46559149,9.0112 9.01409362,8.4312 9.01409362,7.7056 C8.99720426,6.964 8.46559149,6.4 7.60182128,6.4 Z" id="path-1"></path>
    </defs>
    <g id="MOB-Safeversion-1" stroke="none" stroke-width="1" fill="none" fill-rule="evenodd">
        <g id="1.2-validación-" transform="translate(-237.000000, -858.000000)">
            <g id="Components/Footer-Copy" transform="translate(0.000000, 695.000000)">
                <rect id="Rectangle-5" fill="#1A1446" fill-rule="nonzero" x="0" y="0" width="378" height="251"></rect>
                <g id="Group-2" transform="translate(116.617021, 163.000000)">
                    <g id="icon-copy" transform="translate(120.638298, 0.000000)">
                        <mask id="mask-2" fill="white">
                            <use xlink:href="#path-1"></use>
                        </mask>
                        <use id="Mask" fill="#1A1446" xlink:href="#path-1"></use>
                        <g id="Color" mask="url(#mask-2)" fill="#FFFFFF">
                            <rect id="Rectangle" x="0" y="0" width="24.1276596" height="24"></rect>
                        </g>
                    </g>
                </g>
            </g>
        </g>
    </g>
</svg>