<?xml version="1.0" encoding="UTF-8"?>
<svg width="270px" height="246px" viewBox="0 0 270 246" version="1.1" xmlns="http://www.w3.org/2000/svg" xmlns:xlink="http://www.w3.org/1999/xlink">
    <title>35BC3824-780D-4B9B-9A97-560CBF9B5C09</title>
    <g id="Desktop" stroke="none" stroke-width="1" fill="none" fill-rule="evenodd">
        <g id="3.2-Loader" transform="translate(-585.000000, -314.000000)">
            <g id="Group-2" transform="translate(585.000000, 321.000000)">
                <text id="Procesando…" font-family="Helvetica-Bold, Helvetica" font-size="30" font-weight="bold" line-spacing="23" letter-spacing="-0.375" fill="#1A1446">
                    <tspan x="5.67333984" y="222.224609">Procesando…</tspan>
                </text>
                <g id="Group" transform="translate(45.000000, 0.000000)">
                    <g id="Isotipo" transform="translate(54.000000, 34.000000)">
                        <path d="M67.3923885,107.941685 C59.9043368,89.5330676 55.6521007,77.703326 55.3329671,77.9459531 C52.5955136,70.8440486 50.4374154,65.0594721 50.0366948,63.3095162 C51.5575022,61.9192735 54.7487839,56.8638453 55.5309134,53.4417093 C56.6172045,48.6779404 56.2840752,46.4078587 55.1398487,42.7912831 C54.3142675,40.1517663 52.6534492,37.6775231 52.7644923,36.005343 C52.8513955,34.7512079 53.5031702,33.861647 54.0583856,33.2929113 C53.7590521,31.5478164 52.6293094,30.7651972 51.2823085,30.5999236 C50.0366948,30.429789 49.0662748,30.7943631 47.9703278,30.847834 C47.6854781,30.3374302 47.1302627,30.429789 47.5502953,28.6166402 C48.182758,25.8750426 53.406611,24.5820196 57.6745278,22.9195615 C63.0818432,20.8050314 66.1041462,16.8822136 66.2972646,10.5823723 C66.4227916,6.00818198 63.8881125,2.61035091 60.7161427,1.08886146 C60.074024,2.93117616 57.4379577,5.42000235 55.6081608,6.43108799 C53.8025037,7.44217363 51.2967924,7.81160877 49.4863073,7.39842473 C49.8822,4.03462058 48.3324248,1.15205431 45.8943049,0 C45.1170033,1.42913066 42.1767756,3.41727502 37.759192,3.27144536 C33.3416085,3.14019867 33.0567588,2.09508611 26.848002,2.10966908 C18.0176628,2.12425204 10.6984752,7.47620055 9.80047462,15.3607241 C9.21146348,20.4793452 11.1764433,24.7667372 12.6489711,27.002792 C11.5481962,27.82916 8.96523751,30.3374302 8.50175333,31.0763005 C7.86929055,30.3374302 6.11191304,29.3312055 4.00209444,30.7214483 C4.4559227,31.8394757 4.54282598,33.2005525 4.19038489,34.4984365 C3.82345992,35.7963204 0.593554556,42.0913008 0.231457542,47.1856169 C-0.396177281,55.7944278 4.54282598,61.6324751 8.68521582,63.2997942 C7.7775593,64.690037 7.58926886,66.1677776 8.23138756,67.3733027 C8.65624806,68.1802269 9.51562497,68.962846 11.2681745,68.962846 C10.2639588,70.0662905 9.87289402,71.7481925 10.5294966,73.4009287 C11.2681745,75.2481044 13.3828211,77.9410921 15.2222739,77.9410921 C15.1257147,79.5111914 15.8692206,83.2104038 16.2361455,84.6930053 C15.5988548,85.9082525 14.9422522,86.8123964 15.0388114,89.0387292 C15.1257147,91.3428378 16.6078985,93.2143184 18.4376954,93.5788926 C18.9011796,94.7066419 19.2487927,95.9218891 19.8909114,96.6607594 C20.5330301,97.4142126 21.0979014,98.3134955 22.488354,99.2322224 C23.8691506,100.15581 25.4334097,100.909263 27.2776905,100.909263 C29.1171433,100.909263 30.73451,100.9919 31.5600911,100.719685 C31.6083707,101.249533 31.7773494,106.149409 31.9849516,111.593717 C31.9849516,125.198652 31.9849516,86.9156773 31.9849516,115.814255 C31.9849516,117.955293 52.4692697,116.59576 61.7404809,111.593717 C64.4351712,110.139866 67.3923885,109.90406 67.3923885,107.941685 Z" id="Fill-27" fill="#1A1446"></path>
                        <path d="M34.6042608,89.9222462 C33.4951571,89.2867946 30.471644,87.8024573 28.0750156,87.894622 C25.6012322,87.9867868 23.513224,88.4961182 21.560237,89.7524691 C20.7308204,89.1897791 20.4800665,88.0741007 21.0056852,86.7886452 C21.5361261,85.4934881 22.2932099,85.2946063 22.2932099,85.2946063 L21.5988146,73.2016228 C21.5988146,73.2016228 24.9839919,70.7665335 25.8905636,70.5045916 C26.8067797,70.2183958 27.2311324,69.5004811 27.2311324,68.5788337 C28.7260113,69.5974966 30.9393964,71.8773611 32.1256551,73.5751325 C33.2299366,75.141933 33.8712879,76.893063 33.9629095,78.838224 C34.0497089,80.7785343 34.0738199,83.0923542 33.6832225,85.4934881 C34.4354841,86.143492 35.1588126,86.6867789 35.245612,87.7102926 C35.3372336,88.738657 34.965925,89.1024651 34.6042608,89.9222462" id="Fill-28" fill="#FFFFFF"></path>
                        <path d="M39.271192,125.85767 C38.8020117,125.028428 36.6834447,80.1232926 36.6012172,78.5472484 L38.9954881,76.8014764 L38.9954881,76.3407865 C37.2445264,76.2486486 35.2178607,75.6036828 34.5745516,74.5756171 L33.9312424,60.8179637 C31.5321346,60.6288384 29.0604732,59.8674878 28.1366232,58.9509575 C26.9902753,57.7919589 26.1002837,56.3710944 27.3917389,53.8833693 C28.5864559,54.7174604 32.0835425,55.7358274 35.1259594,55.7358274 C35.7692685,55.7358274 37.1187667,57.1857881 37.8926724,57.5009969 C38.7778271,57.8356032 40.2530849,58.6599955 40.9496001,58.970355 C41.5735616,59.2419195 41.9653514,60.716127 42.1443171,61.2738042 C42.3281197,61.8363307 64.5198668,119.568041 64.887472,120.222706 C65.264751,120.862822 66.5562062,130.571254 66.6384337,131.303509 C66.7351719,132.045462 70.0581297,139.799599 70.6966019,140.541552 C67.7460863,140.459113 62.9188493,142.146693 58.9622562,146.040734 C55.0830537,149.82809 51.6633577,158.159302 50.8797781,162 C50.6040742,159.968115 39.7355355,126.686912 39.271192,125.85767" id="Fill-32" fill="#FFFFFF"></path>
                        <path d="M40.9262563,58.9752044 C40.2308866,58.6551462 38.7580549,57.8307538 37.8743559,57.4912982 C37.1113808,57.1809387 35.754444,55.7358274 35.1121928,55.7358274 C32.0796082,55.7358274 28.5834438,54.7223098 27.3906915,53.8833693 C26.1013602,56.3759438 26.9898882,57.7968083 28.1343508,58.9509575 C29.0566815,59.8674878 31.5242782,60.6336878 33.9146116,60.8179637 L34.5616918,74.5756171 C35.203943,75.6036828 37.2224468,76.2486486 38.975358,76.3310878 L38.975358,76.8014764 L36.5850245,78.5520978 C36.6622878,80.1281419 38.7821997,125.028428 39.2506085,125.862519 C39.7093593,126.686912 50.5648533,159.972965 50.8401038,162 C51.6175658,158.164151 55.7741131,152.201758 61.1734784,149.478627 C66.5728438,146.755497 69.8771521,143.415795 72.8228155,143.498235 C72.1805643,142.751432 66.6694229,132.045462 66.5728438,131.303509 C66.4907515,130.571254 65.2014202,120.862822 64.8295905,120.222706 C64.4625899,119.572891 42.3025089,61.8363307 42.1190086,61.2738042 C41.9403372,60.7209764 41.5540207,59.2419195 40.9262563,58.9752044 Z" id="Fill-37" fill="#FFFFFF"></path>
                        <path d="M28.0811512,50.2503902 C34.3347181,50.2648209 37.2926167,52.8575353 38.7595027,54.2332613 C38.9428635,52.1263802 38.609919,50.2648209 36.6412034,48.6726345 C35.0102577,47.3546312 32.1392143,46.1857451 27.7337308,46.1857451 C24.7854828,46.1857451 21.8324095,47.0515867 19.9891514,48.6101015 C18.3051276,50.03874 18.0252612,51.6357367 18.3919827,54.0312316 C18.942065,52.2947383 22.9229235,50.2311493 28.0811512,50.2503902" id="Fill-38" fill="#FFFFFF"></path>
                        <path d="M16.8528849,17.1565414 C16.7081326,19.565041 17.3450428,22.0658018 18.4499854,23.5516907 C19.0820704,24.3820404 20.5730191,26.0136047 21.6683116,25.9456229 C23.2316365,25.8533618 24.7032849,22.8427372 28.3848185,22.9835567 C30.7635813,23.0758178 32.3269062,26.4651984 34.3534385,26.5865945 C35.9167633,26.6934232 36.7322013,25.120129 38.3244767,24.9501744 C39.6754982,24.804499 40.1435306,25.4843175 40.9686187,26.3146672 C41.5235026,25.0230121 42.3196402,24.1441039 44.375123,22.6193683 C46.8503874,20.764435 55.3039219,19.0066187 58.9034292,15.7726252 C60.6983578,14.1507726 61.1036642,11.1595714 60.5343051,9.1395394 C59.1736335,11.0673103 55.4052485,13.0873423 51.72854,13.2670086 C49.8901857,13.3641255 45.4704154,12.5483434 43.9119156,11.7131379 C44.6984031,10.3535009 44.9541322,8.82876525 44.3075719,7.34773218 C43.1061278,8.2654871 37.9384705,8.76563925 35.9167633,8.76563925 C33.8998812,8.76563925 29.9481434,7.94500126 26.8842196,8.11010002 C20.1821879,8.47914433 17.0748385,13.2670086 16.8528849,17.1565414" id="Fill-39" fill="#FFFFFF"></path>
                        <path d="M28.3004141,38.0081724 C42.8018623,38.2890392 49.3422033,45.0201559 49.5348495,50.5503251 C50.2717215,48.8990224 50.1753984,47.3300427 50.0742591,45.4753537 C50.0020168,44.0080671 47.7962169,39.8483338 47.6950776,38.4730553 C47.6083868,37.0832492 47.9744147,36.1534834 48.2489357,34.8750555 C47.3290497,35.0493866 44.1166731,36.3374996 42.7440684,35.2382453 C41.2703244,34.0469829 42.2865335,31.0881971 40.3552546,30.356975 C38.4287919,29.6015403 35.4042454,31.9211122 33.4681503,31.6402455 C31.5513199,31.3593787 29.8993781,28.6911447 27.8862246,28.6911447 C25.8538064,28.6911447 24.8472296,31.1753626 22.371725,31.7370961 C20.4597107,32.1680812 18.1479555,31.005874 17.0161586,31.0881971 C15.7639578,31.1753626 15.0222697,32.1583962 14.4635955,33.3641862 C13.9097374,34.5554485 13.4714672,35.0493866 12.0025393,35.4271039 C10.8370294,35.7128132 9.16100681,34.6910394 8.33262784,34.8750555 C8.9731767,35.5142695 9.2958592,38.1340782 8.71792038,39.6691602 C7.98586455,41.6061722 6.41098126,43.6400348 6.22315114,46.0564573 C6.06903413,48.1871705 6.76737687,49.1702041 7.32605106,50.7343413 C6.95520698,42.8942852 15.6435539,37.7660459 28.3004141,38.0081724" id="Fill-40" fill="#FFFFFF"></path>
                        <path d="M19.3462272,66.1430327 C18.3460324,66.3323552 16.2254272,67.997423 15.2059979,69.7255982 C15.4945156,70.8518248 16.6918641,73.4586509 17.8603609,74.1771058 C18.1296441,72.9732085 19.4327825,70.9537677 20.086756,70.4974518 C20.9955868,69.8421044 21.9044176,69.3809341 22.6401378,69.026561 C23.3710494,68.6479159 23.6499498,68.2789796 23.6499498,67.4440185 C23.6499498,66.6090574 23.54416,66.215849 23.1738956,65.3857424 C23.8999985,65.2983627 25.2560318,65.4100145 25.7272774,64.7498127 C26.1744799,64.1138831 26.4004854,63.2740676 26.4004854,62.4536697 C26.4004854,61.6089998 26.0254124,61.4293861 25.2127542,61.337152 C24.3808614,61.2400635 21.9813557,61.1818104 20.7936244,61.2788989 C20.7936244,61.2788989 22.6401378,60.3177228 23.1931301,60.045875 C23.7413138,59.7740272 23.9240417,59.2109139 24.0154056,58.7448891 C24.1115782,58.2837188 24.0923437,57.2497263 23.8326777,55.9827214 C21.0869507,56.0652466 16.2254272,58.560421 14.9415233,59.6672299 L15.9513353,62.1866764 L14.128865,62.1041512 C13.845156,63.3663016 14.0326925,65.3080716 14.5808761,66.4245893 C16.2254272,66.1430327 18.14407,66.0507986 19.3462272,66.1430327" id="Fill-41" fill="#FFFFFF"></path>
                    </g>
                    <g id="noun_Comet_1018745" transform="translate(90.500000, 87.000000) scale(1, -1) translate(-90.500000, -87.000000) " fill="#FFD000" fill-rule="nonzero" stroke="#FFFFFF" stroke-width="7">
                        <path d="M88.2891671,-3.5 C89.449119,-3.38316306 90.2251143,-3.34062122 91.0008399,-3.29545127 C91.853231,-3.24581715 92.7053955,-3.19397457 93.5156368,-3.10227185 C94.5305594,-3.0974871 95.5412476,-3.05231731 96.5542799,-2.80161768 C96.8182651,-2.73628809 97.0835622,-2.71161459 97.3472291,-2.67898918 C97.8085573,-2.6219057 98.2686911,-2.55899615 98.7298429,-2.45847197 C100.771466,-2.20795443 102.457373,-1.98630072 103.978596,-1.60983686 L103.978596,-1.60983686 L108.794369,-0.418056033 L109.333236,-0.262298188 C109.865177,-0.153242636 110.481109,-0.00638836086 111.116186,0.258135881 C111.930525,0.472086745 112.607359,0.705264688 113.423748,1.08979565 C114.083103,1.28421717 114.777341,1.51234448 115.471322,1.74133456 C116.248008,1.99761445 117.024276,2.25529738 117.737943,2.44880195 L117.737943,2.44880195 L122.172946,4.33031628 C133.671431,9.29527291 142.873362,16.3262049 149.981109,23.5690882 C156.923879,30.857681 161.935957,38.3223715 165.074803,44.7437893 C168.203864,51.1451871 170.076294,56.5157353 171.119255,60.2324635 C172.089294,63.6893244 172.512436,65.5260691 172.561695,65.7421205 L172.561695,65.7421205 L165.830438,67.6316231 C165.736075,67.3498601 165.484836,66.5802224 165.102256,65.3084997 L164.961816,64.8387854 C164.7431,64.1028729 164.488414,63.2257691 164.201547,62.2053653 C163.044297,58.7753063 161.314729,54.0355846 158.257873,48.3593135 C154.987593,42.6572082 150.376683,36.2015125 143.854207,29.9348267 C137.331745,23.668154 128.895366,17.583452 118.534939,13.5950991 C117.889055,13.3232539 117.352154,13.1291215 116.82947,12.938588 C116.030364,12.64729 115.258579,12.3597544 114.539812,12.0264843 L114.539812,12.0264843 L110.666349,10.9309605 C110.248531,10.8264761 109.878832,10.7224165 109.509254,10.6178896 C109.193616,10.5286184 108.878111,10.4388356 108.517376,10.3495629 C107.872438,10.1839214 107.556814,10.0547945 107.150944,10.0547945 C106.652236,10.0389128 106.48292,9.99505953 106.310147,9.95230261 C105.826182,9.83253351 105.362204,9.73302719 104.905068,9.63981697 L104.905068,9.63981697 L103.396583,9.33822533 C102.856815,9.22827107 102.309428,9.11030387 101.73881,8.97003525 C100.135826,8.61992177 98.7003979,8.43988413 97.2724218,8.26328528 C96.8103493,8.24924665 96.347869,8.19851134 95.8856525,8.14131795 C95.6276056,8.10938794 95.3699247,8.06849315 95.1115118,8.06849315 L95.1115118,8.06849315 L92.7036254,8.06849315 C91.095732,8.06849315 89.4881922,8.06344579 87.7065694,7.89053442 C86.9695229,7.969062 86.2325589,8.01620903 85.495436,8.0618138 C84.7641216,8.10705921 84.032584,8.1501367 83.3012252,8.24063301 C76.7586171,8.64014684 70.439897,10.1680764 64.118843,12.0601261 L64.118843,12.0601261 L59.5610108,13.7520468 C59.1086502,13.9646909 58.6576146,14.1370556 58.2046717,14.3051933 C57.9157494,14.4124446 57.6243739,14.5142587 57.3352604,14.6573551 L57.3352604,14.6573551 L54.9273741,15.8491359 C53.4354014,16.5875862 51.9425298,17.3243817 50.6244694,18.0627624 C50.1341603,18.4023906 49.6247223,18.7234025 49.1076352,19.0364887 L49.1076352,19.0364887 L47.6067201,19.9338245 C47.182864,20.1906909 46.764546,20.4526269 46.3658965,20.7345 C40.7399667,24.5758287 35.3438416,28.9469116 30.731302,34.4779882 L30.731302,34.4779882 L28.7954415,36.607215 C28.5586099,36.8214893 28.4042418,37.1093428 28.2145785,37.3956002 C27.9909563,37.7331116 27.7577261,38.0814807 27.4945124,38.4313625 C27.1598438,38.8947507 26.8038039,39.3793651 26.4387715,39.8734465 L26.4387715,39.8734465 L25.3406803,41.3570499 C25.023603,41.7862248 24.7122584,42.2096761 24.4169984,42.6174005 C23.9851618,43.3730047 23.5431044,44.1184384 23.1008945,44.8637842 L23.1008945,44.8637842 L22.3801303,46.0815232 C21.3035138,47.9134308 20.2619478,49.7831581 19.4534342,51.8793632 L19.4534342,51.8793632 L18.1733826,54.4136038 L17.7191679,55.3128563 L17.3818423,56.4815687 L15.5510571,61.7170745 C15.2929701,62.4877412 15.125752,63.259892 14.9527956,64.0303336 C14.7315385,65.0159323 14.5047455,65.9998821 14.1781842,66.9852088 L14.1781842,66.9852088 L13.4392471,69.5453619 C13.3816644,69.859684 13.3498551,70.1491351 13.3173009,70.4240535 C13.2564203,70.9381873 13.1919454,71.4222263 13.0868086,71.9025981 L13.0868086,71.9025981 L12.5229882,76.9257191 L12.3289167,82.6890489 L12.3289167,85.2848472 L12.5156786,87.8731 C12.5851506,88.5083783 12.6330344,89.1657403 12.6724827,89.830694 L12.6724827,89.830694 L12.7765179,91.7138339 C12.8091746,92.2625203 12.8473938,92.8049433 12.9053961,93.3287754 C13.8643008,100.319781 15.7724861,107.122602 18.6332898,113.547839 C21.7008678,119.80285 25.1368693,125.87848 29.7380872,131.192344 C38.7384082,141.618236 50.2164854,149.602014 62.6679098,153.584143 C64.9996569,154.445781 67.2809049,154.952046 69.5147457,155.458048 C70.4446549,155.668688 71.367496,155.877967 72.274759,156.102492 C72.9400585,156.267137 73.60667,156.341468 74.2716513,156.423751 C75.1637116,156.534132 76.0543046,156.65167 76.9459426,156.862069 L76.9459426,156.862069 L79.051535,157.209456 C79.3961813,157.239476 79.7425677,157.30552 80.0875169,157.390411 L80.0875169,157.390411 L81.2661652,157.390411 C82.2622649,157.390411 83.2584344,157.444971 84.2252455,157.499706 C85.007306,157.54398 85.7669663,157.589041 86.4832523,157.589041 L86.4832523,157.589041 L88.7470233,157.589041 L90.9430697,157.407886 C91.7923432,157.305601 92.6414584,157.251007 93.4907845,157.19846 C94.2220989,157.153215 94.9536365,157.110137 95.6849953,157.019641 C96.4008826,156.931059 97.071542,156.79539 97.7426204,156.662531 C98.5741808,156.497899 99.4061578,156.33606 100.292636,156.22598 C102.547106,155.926134 104.798086,155.253768 106.95335,154.623771 C107.510783,154.46083 108.062242,154.299683 108.606297,154.145809 C109.874037,153.787257 111.13835,153.240287 112.405708,152.702621 C113.055532,152.426938 113.704823,152.188668 114.338119,151.957813 C115.003322,151.715327 115.647898,151.488512 116.233216,151.198809 C116.80567,150.915473 117.425555,150.584387 118.045709,150.253831 C118.717791,149.895596 119.390134,149.537874 120.012325,149.229051 L120.012325,149.229051 L123.640417,147.33882 C124.095758,147.043751 124.54968,146.771902 124.994044,146.50682 C125.620938,146.132852 126.227985,145.785104 126.753531,145.349632 L126.753531,145.349632 L128.619221,144.118403 L130.152038,142.980404 C138.384451,136.917056 144.507408,129.524024 148.718498,122.702512 C148.894258,122.411823 149.050997,122.139852 149.197013,121.882218 L149.197013,121.882218 L149.707116,120.976306 C149.88067,120.670053 150.061352,120.356942 150.261888,120.023934 C150.389531,119.793219 150.54275,119.557211 150.712377,119.312489 C151.286057,118.052986 151.415205,117.744361 151.541299,117.484543 C152.319641,115.751057 153.099057,114.020115 153.877355,112.462084 C154.141117,111.684157 154.404208,110.933544 154.660619,110.202195 C155.491256,107.833002 156.258116,105.687652 156.685589,103.430826 C156.922673,102.553934 157.043183,101.958772 157.164136,101.378501 C157.333253,100.567162 157.505496,99.7781015 157.718229,99.0822376 C157.873638,98.1668249 158.029044,97.2519923 158.029044,96.3356164 C158.113009,95.5443314 158.148384,95.3401618 158.182729,95.1420044 C158.303608,94.4445905 158.430359,93.8504148 158.430359,93.3561644 C158.430359,92.2321687 158.467844,90.9180394 158.650872,89.9212013 C158.807777,87.045861 158.828773,85.2884752 158.831353,84.885023 C158.971773,81.1671393 160.504889,78.0126815 162.877919,75.7877815 C165.261412,73.5530723 168.502895,72.2424317 172.096378,72.3792463 C175.678675,72.5156351 178.836023,74.0362927 181.066008,76.3909142 C183.310296,78.7606375 184.628702,81.9809842 184.490154,85.5468455 L184.490154,85.5468455 L184.309708,90.191042 L179.896073,88.7346928 C179.670135,88.6601409 179.237114,90.7317464 179.237114,90.7317464 L179.237114,90.7317464 L183.489507,90.7739726 C183.489507,91.3580486 183.43877,91.9424767 183.379871,92.5533407 C183.331383,93.0562358 183.274166,93.5864946 183.292279,94.1795393 L183.292279,94.1795393 L182.655227,98.593852 C182.555329,99.3757639 182.413139,100.158244 182.265374,100.960702 C182.11701,101.766417 181.961554,102.596137 181.862407,103.479447 C181.601194,104.644955 181.388709,105.380416 181.169313,106.136905 C180.898268,107.071482 180.614456,108.04224 180.396136,109.014063 C179.764079,111.966895 178.578617,114.926795 177.305208,118.048438 C176.88184,119.086284 176.450039,120.14421 176.032311,121.229669 C175.569199,122.185593 175.248547,122.841356 174.920978,123.511033 C174.241035,124.901097 173.532198,126.347557 172.741806,127.797316 C172.535041,128.309752 172.263887,128.813861 172.017749,129.244536 C171.546791,130.027251 171.39548,130.276886 171.24417,130.526522 C171.0788,130.799353 170.912743,131.071739 170.699363,131.39205 C170.393436,131.89392 170.042027,132.441344 169.690255,132.988543 C169.35639,133.507889 169.022127,134.026989 168.735955,134.499124 C162.420082,144.090139 153.884864,153.363981 142.85116,160.988941 C142.515902,161.211146 142.197519,161.437171 141.878723,161.662582 C141.495219,161.933746 141.111302,162.204297 140.78259,162.421224 C140.098002,162.873006 139.197234,163.334208 138.28464,163.786895 C136.969419,164.53086 135.650084,165.27805 134.153568,166.201885 C132.573626,167.296743 130.79918,168.008549 129.001579,168.678688 C128.358411,168.992151 127.71652,169.278309 127.086608,169.558256 C126.263047,169.924265 125.462187,170.273847 124.726075,170.690233 C122.593337,171.529223 120.965569,172.132764 119.138947,172.737007 C117.42968,173.36942 115.514627,173.996402 113.810799,174.418056 C113.08695,174.586993 112.401935,174.752654 111.710509,174.919822 C108.784972,175.627137 105.750467,176.350943 102.717824,176.684499 C100.916135,176.882664 99.1130993,177.073449 97.3113186,177.5 L97.3113186,177.5 L85.280933,177.5 C84.4042691,177.395989 83.5255879,177.348184 82.6718262,177.299929 C81.7688929,177.248894 80.8898126,177.196819 80.0570805,177.10274 L80.0570805,177.10274 L78.8582788,177.10274 C78.4650339,177.10274 77.9698275,177.034504 77.4762434,176.936785 L77.4762434,176.936785 L73.8711479,176.461618 C73.4222017,176.370931 72.9723628,176.291767 72.53226,176.217533 L72.53226,176.217533 L71.1863382,175.993824 C69.9503544,175.785377 68.7157612,175.549082 67.479367,175.185769 C63.5353711,174.158185 59.5975357,173.113932 55.8565634,171.479202 C40.2517042,165.686868 26.1050707,155.377281 15.6964908,141.984701 C10.2975748,135.38883 6.12740364,127.777326 2.79896314,119.952138 C-0.368255997,111.805374 -2.44900784,103.347886 -3.28161934,94.8997266 C-3.46480874,93.0863385 -3.49566904,91.117679 -3.49941498,89.2530371 L-3.49941498,89.2530371 L-3.50002522,83.1735824 L-3.28190314,81.6621523 L-2.87837236,75.8700654 L-1.83853747,69.4882172 L-1.20133694,66.3343999 L-0.355113731,63.1931202 C-0.174490483,62.6008257 -0.0137182146,62.0082211 0.145976526,61.4214595 C0.560593749,59.8980438 0.979944133,58.4120439 1.59504004,57.0256311 C1.97360666,56.0858049 2.30622252,55.1909815 2.63920504,54.2963022 C3.0061614,53.3103398 3.37351037,52.3245316 3.79426376,51.2853036 L3.79426376,51.2853036 L4.41307406,49.8559993 L5.05617728,48.370584 L6.47245335,45.5666466 C7.72200295,42.8031421 9.40800182,40.1440556 11.1459058,37.5166842 L11.1459058,37.5166842 L12.0443156,36.1626129 C12.3613132,35.6848706 12.676971,35.207676 12.9883349,34.7304282 L12.9883349,34.7304282 L14.8681158,32.2493733 L18.5798782,27.3503523 L20.6902948,25.0523457 C26.1356281,19.0420518 32.6243485,13.8568552 39.5342802,9.71095117 C41.2429287,8.65404363 42.957731,7.60785191 44.8742929,6.75762765 C46.4981508,5.95686429 48.3168301,5.15496535 50.1368644,4.3542198 L50.1368644,4.3542198 L52.6817782,3.19150986 C53.2098567,2.9358857 53.7950683,2.73051123 54.3849962,2.5358551 C54.6767558,2.43958434 54.9735781,2.35481874 55.2334276,2.22620652 C56.5722815,1.74791533 57.4061855,1.45639531 58.2401419,1.16503119 C59.1117716,0.860504903 59.9834539,0.556134508 60.9063551,0.251608529 C68.3910538,-1.8686495 75.9430964,-3.30136986 83.0720799,-3.30136986 C83.6096423,-3.30136986 84.127373,-3.32163091 84.6384453,-3.34784835 L84.6384453,-3.34784835 L86.3475322,-3.44347304 C86.981019,-3.47612674 87.6227106,-3.5 88.2891671,-3.5 Z" id="Path"></path>
                    </g>
                </g>
            </g>
        </g>
    </g>
</svg>