<?xml version="1.0" encoding="UTF-8"?>
<svg width="16px" height="16px" viewBox="0 0 16 16" version="1.1" xmlns="http://www.w3.org/2000/svg" xmlns:xlink="http://www.w3.org/1999/xlink">
    <title>3050E1EE-B4D8-43AC-8D74-15F091CB14FA</title>
    <defs>
        <path d="M2,14.6666667 L10,14.6666667 L10,1.33333333 L2,1.33333333 L2,14.6666667 Z M10.1333333,0 C10.7946667,0 11.3333333,0.538133333 11.3333333,1.2 L11.3333333,14.8 C11.3333333,15.4613333 10.7946667,16 10.1333333,16 L1.86666667,16 C1.20533333,16 0.666666667,15.4613333 0.666666667,14.8 L0.666666667,1.2 C0.666666667,0.538133333 1.20533333,0 1.86666667,0 L10.1333333,0 Z M6,11.7333333 C5.41075269,11.7333333 4.93333333,12.2107527 4.93333333,12.8 C4.93333333,13.3899642 5.41075269,13.8673835 6,13.8673835 C6.58924731,13.8673835 7.06666667,13.3899642 7.06666667,12.8 C7.06666667,12.2107527 6.58924731,11.7333333 6,11.7333333 Z M7.38773333,2.66666667 L4.3456,2.66666667 C4.08106667,2.66666667 3.86666667,2.8816 3.86666667,3.14613333 C3.86666667,3.41066667 4.08106667,3.62506667 4.3456,3.62506667 L4.3456,3.62506667 L7.38773333,3.62506667 C7.65226667,3.62506667 7.86666667,3.41066667 7.86666667,3.14613333 C7.86666667,2.8816 7.65226667,2.66666667 7.38773333,2.66666667 L7.38773333,2.66666667 Z" id="path-1"></path>
    </defs>
    <g id="DSK-Safeversion-1" stroke="none" stroke-width="1" fill="none" fill-rule="evenodd">
        <g id="1.2-Validación" transform="translate(-646.000000, -816.000000)">
            <rect fill="#FFFFFF" x="0" y="0" width="1366" height="909"></rect>
            <g id="info" transform="translate(0.000000, 786.000000)">
                <rect id="bg-blue" fill="#1A1446" x="0" y="0" width="1366" height="124"></rect>
                <g id="Group" transform="translate(93.000000, 30.000000)">
                    <g id="icon" transform="translate(555.000000, 0.000000)">
                        <mask id="mask-2" fill="white">
                            <use xlink:href="#path-1"></use>
                        </mask>
                        <use id="Mask" fill="#000000" xlink:href="#path-1"></use>
                        <g id="Color" mask="url(#mask-2)" fill="#FFFFFF">
                            <g transform="translate(-2.000000, 0.000000)" id="Rectangle">
                                <rect x="0" y="0" width="16" height="16"></rect>
                            </g>
                        </g>
                    </g>
                </g>
            </g>
        </g>
    </g>
</svg>