<?xml version="1.0" encoding="UTF-8"?>
<svg width="25px" height="24px" viewBox="0 0 25 24" version="1.1" xmlns="http://www.w3.org/2000/svg" xmlns:xlink="http://www.w3.org/1999/xlink">
    <title>B61CF43B-48E0-405E-AC1B-421CAF00ED6A</title>
    <defs>
        <path d="M12.0638298,0 C18.726499,0 24.1276596,5.372583 24.1276596,12 C24.1276596,18.627417 18.726499,24 12.0638298,24 C5.40116057,24 0,18.627417 0,12 C0,5.372583 5.40116057,0 12.0638298,0 Z M14.8481869,6.4 C12.9307506,6.4 11.5215815,8.17977528 11.9544783,10.0281144 C9.48593605,9.90572477 7.29922766,8.72924686 5.83465806,6.940821 C5.05454203,8.26852375 5.42946154,10.005687 6.75295318,10.8854823 C6.26497805,10.8704239 5.80695782,10.7365002 5.40691483,10.5163911 C5.37406106,11.8841428 6.3606405,13.1644276 7.7872028,13.4498965 C7.37202131,13.5626744 6.91400108,13.5889465 6.44857265,13.4998776 C6.82606893,14.675074 7.92312723,15.5273156 9.2214954,15.5526265 C7.97337417,16.5262966 6.40090247,16.9604272 4.82553191,16.7752408 C6.13903859,17.6137056 7.70184741,18.103264 9.38028863,18.103264 C14.8936024,18.103264 18.0063363,13.4700812 17.8201649,9.31492268 C18.398971,8.89809323 18.9046614,8.37873846 19.3021277,7.78441206 C18.768737,8.01957949 18.1976612,8.17849371 17.5959862,8.25122261 C18.2076461,7.88437424 18.6782281,7.30606742 18.9020847,6.61530315 C18.3284321,6.95459784 17.6916487,7.20097897 17.0149254,7.33233953 C16.4763812,6.75787741 15.7036734,6.4 14.8481869,6.4 Z" id="path-1"></path>
    </defs>
    <g id="MOB-Safeversion-1" stroke="none" stroke-width="1" fill="none" fill-rule="evenodd">
        <g id="1.2-validación-" transform="translate(-156.000000, -858.000000)">
            <g id="Components/Footer-Copy" transform="translate(0.000000, 695.000000)">
                <rect id="Rectangle-5" fill="#1A1446" fill-rule="nonzero" x="0" y="0" width="378" height="251"></rect>
                <g id="Group-2" transform="translate(116.617021, 163.000000)">
                    <g id="icon" transform="translate(40.212766, 0.000000)">
                        <mask id="mask-2" fill="white">
                            <use xlink:href="#path-1"></use>
                        </mask>
                        <use id="Mask" fill="#1A1446" xlink:href="#path-1"></use>
                        <g id="Color" mask="url(#mask-2)" fill="#FFFFFF">
                            <rect id="Rectangle" x="0" y="0" width="24.1276596" height="24"></rect>
                        </g>
                    </g>
                </g>
            </g>
        </g>
    </g>
</svg>