<?xml version="1.0" encoding="UTF-8"?>
<svg width="25px" height="24px" viewBox="0 0 25 24" version="1.1" xmlns="http://www.w3.org/2000/svg" xmlns:xlink="http://www.w3.org/1999/xlink">
    <title>E2E8F082-7F31-453F-B76D-3ED81C1635F3</title>
    <defs>
        <path d="M12.0638298,0 C18.726499,0 24.1276596,5.372583 24.1276596,12 C24.1276596,18.627417 18.726499,24 12.0638298,24 C5.40116057,24 0,18.627417 0,12 C0,5.372583 5.40116057,0 12.0638298,0 Z M17.9348936,5.6 L6.99702128,5.6 C6.24504255,5.6 5.62978723,6.212 5.62978723,6.96 L5.62978723,17.84 C5.62978723,18.588 6.24504255,19.2 6.99702128,19.2 L17.9348936,19.2 C18.6868723,19.2 19.3021277,18.588 19.3021277,17.84 L19.3021277,6.96 C19.3021277,6.212 18.6868723,5.6 17.9348936,5.6 Z M8.43261702,11.72 C8.36425532,11.924 8.36425532,12.196 8.36425532,12.4 C8.36425532,14.644 10.2100213,16.48 12.4659574,16.48 C14.7218936,16.48 16.5676596,14.644 16.5676596,12.4 C16.5676596,12.196 16.5676596,11.924 16.4992979,11.72 L17.9348936,11.72 L17.9348936,17.5 C17.9348936,17.704 17.7981702,17.84 17.5930851,17.84 L7.33882979,17.84 C7.13374468,17.84 6.99702128,17.704 6.99702128,17.5 L6.99702128,11.72 L8.43261702,11.72 Z M12.4659574,9.68 C13.9699149,9.68 15.2004255,10.904 15.2004255,12.4 C15.2004255,13.896 13.9699149,15.12 12.4659574,15.12 C10.962,15.12 9.73148936,13.896 9.73148936,12.4 C9.73148936,10.904 10.962,9.68 12.4659574,9.68 Z M17.5930851,6.96 C17.7981702,6.96 17.9348936,7.096 17.9348936,7.3 L17.9348936,8.66 C17.9348936,8.864 17.7981702,9 17.5930851,9 L16.2258511,9 C16.020766,9 15.8840426,8.864 15.8840426,8.66 L15.8840426,7.3 C15.8840426,7.096 16.020766,6.96 16.2258511,6.96 L17.5930851,6.96 Z" id="path-1"></path>
    </defs>
    <g id="MOB-Safeversion-1" stroke="none" stroke-width="1" fill="none" fill-rule="evenodd">
        <g id="1.2-validación-" transform="translate(-197.000000, -858.000000)">
            <g id="Components/Footer-Copy" transform="translate(0.000000, 695.000000)">
                <rect id="Rectangle-5" fill="#1A1446" fill-rule="nonzero" x="0" y="0" width="378" height="251"></rect>
                <g id="Group-2" transform="translate(116.617021, 163.000000)">
                    <g id="Color" transform="translate(80.425532, 0.000000)">
                        <mask id="mask-2" fill="white">
                            <use xlink:href="#path-1"></use>
                        </mask>
                        <use id="Mask" fill="#1A1446" fill-rule="nonzero" xlink:href="#path-1"></use>
                        <g mask="url(#mask-2)" fill="#FFFFFF" id="Rectangle">
                            <rect x="0" y="0" width="24.1276596" height="24"></rect>
                        </g>
                    </g>
                </g>
            </g>
        </g>
    </g>
</svg>