<?xml version="1.0" standalone="no"?>
<!DOCTYPE svg PUBLIC "-//W3C//DTD SVG 20010904//EN"
 "http://www.w3.org/TR/2001/REC-SVG-20010904/DTD/svg10.dtd">
<svg version="1.0" xmlns="http://www.w3.org/2000/svg"
 width="512.000000pt" height="512.000000pt" viewBox="0 0 512.000000 512.000000"
 preserveAspectRatio="xMidYMid meet">
<metadata>
Created by potrace 1.11, written by Peter Selinger 2001-2013
</metadata>
<g transform="translate(0.000000,512.000000) scale(0.100000,-0.100000)"
fill="#000000" stroke="none">
<path d="M1640 5111 c0 -4 -12 -20 -26 -35 -42 -41 -84 -48 -193 -30 -119 20
-293 14 -366 -12 -134 -47 -195 -125 -195 -252 0 -62 23 -159 50 -212 l19 -37
-43 -42 -43 -43 -47 16 c-62 21 -80 21 -71 -1 31 -72 30 -89 -8 -170 -110
-235 -83 -412 79 -524 41 -28 43 -31 30 -52 -19 -29 -6 -60 31 -76 26 -11 28
-14 25 -64 -4 -60 21 -107 75 -142 28 -18 31 -27 37 -85 5 -49 3 -75 -9 -103
-8 -20 -15 -47 -15 -61 0 -27 41 -82 68 -90 9 -3 27 -28 40 -56 34 -73 84
-104 178 -108 l73 -4 6 -42 c24 -184 25 -169 -16 -289 -232 -682 -159 -1544
179 -2112 74 -124 254 -345 282 -345 3 0 25 31 48 69 78 126 195 274 316 399
221 227 447 376 733 481 62 22 116 41 120 41 4 0 -56 -37 -133 -81 -317 -186
-577 -413 -778 -684 -84 -112 -186 -267 -186 -282 0 -14 121 -86 129 -77 5 5
37 52 71 104 162 244 394 510 582 666 316 264 721 434 1168 489 68 8 149 15
180 15 30 0 61 4 67 8 20 13 36 291 29 492 -8 225 -45 518 -81 640 -3 10 79
117 215 280 121 145 218 265 217 266 -1 2 -83 -26 -182 -62 -99 -36 -217 -78
-262 -94 l-83 -29 -31 62 c-18 34 -49 90 -70 124 l-38 63 80 257 c43 141 77
258 76 259 -1 1 -74 -54 -162 -122 -88 -69 -166 -128 -173 -131 -7 -3 -32 13
-56 35 -128 118 -314 229 -453 269 l-61 18 -58 198 c-32 109 -61 200 -65 203
-5 2 -13 -15 -19 -38 -7 -24 -29 -101 -50 -173 -35 -121 -39 -130 -61 -128
-123 12 -267 14 -342 4 -174 -23 -373 -99 -536 -205 -39 -25 -72 -42 -75 -38
-2 4 -29 72 -61 151 l-57 143 21 27 c113 141 137 285 77 460 -27 77 -34 145
-16 156 35 22 -14 63 -87 73 -92 13 -57 74 82 144 115 58 209 121 237 159 68
91 56 190 -39 307 l-35 43 -18 -28 c-34 -56 -134 -122 -186 -123 -17 0 -23 10
-33 54 -8 38 -22 64 -43 85 -31 30 -58 40 -58 22z m-29 -220 c-17 -32 -13 -38
32 -49 116 -30 187 -21 267 33 27 18 52 30 54 26 8 -13 -12 -84 -32 -110 -26
-35 -76 -63 -206 -113 -103 -40 -166 -81 -178 -117 -3 -12 -10 -11 -36 8 l-31
22 -30 -22 c-43 -31 -76 -28 -119 14 -55 52 -90 53 -156 2 -26 -19 -54 -35
-65 -35 -41 0 -81 86 -81 176 0 103 65 188 164 215 34 9 62 7 157 -10 127 -24
196 -18 241 19 23 18 23 18 26 -10 2 -16 -2 -38 -7 -49z m-327 -397 c9 -8 16
-20 16 -24 0 -18 50 -42 85 -42 19 0 53 9 75 21 22 12 47 21 55 21 21 0 45
-40 45 -76 0 -44 20 -57 85 -52 l55 3 0 -36 c0 -20 9 -65 19 -100 19 -63 26
-109 22 -159 -1 -21 -7 -15 -33 33 -18 33 -50 74 -73 93 -194 158 -584 146
-754 -24 -32 -32 -54 -65 -62 -92 l-13 -43 -13 29 c-19 46 -15 81 18 150 27
55 31 73 26 115 -7 54 -3 57 51 38 42 -14 64 0 91 56 23 50 29 52 91 30 73
-26 98 -20 144 29 47 51 49 52 70 30z m91 -388 c75 -35 115 -80 115 -127 l0
-39 -47 31 c-54 33 -131 59 -178 59 -45 0 -131 -28 -176 -56 -21 -13 -41 -24
-44 -24 -3 0 -5 18 -5 41 0 49 17 66 105 110 78 38 157 40 230 5z m-84 -172
c17 -8 63 -22 102 -30 92 -19 140 -52 171 -118 58 -119 488 -1273 502 -1345 8
-42 21 -108 29 -148 11 -59 35 -127 71 -209 3 -7 -14 -16 -43 -23 -161 -40
-265 -165 -362 -434 -7 -21 -245 725 -260 818 -6 33 -18 266 -27 518 -17 449
-17 458 2 472 19 15 19 15 0 30 -11 8 -28 15 -38 15 -30 0 -38 35 -38 168 0
143 -1 146 -65 158 -72 13 -130 95 -93 132 15 15 13 15 49 -4z m-123 -70 c3
-22 -3 -34 -25 -51 l-28 -23 53 0 52 0 0 -45 c0 -43 -1 -45 -30 -45 -28 0 -30
-3 -30 -35 0 -25 -5 -38 -17 -42 -39 -14 -76 -48 -93 -86 l-18 -39 -26 44
c-33 57 -33 72 4 100 17 12 30 25 30 30 0 4 -20 8 -45 8 l-45 0 0 39 c0 34 4
40 26 45 l27 7 -22 15 c-44 31 -21 52 109 95 67 22 74 20 78 -17z m1857 -469
c41 -214 77 -400 80 -412 5 -21 4 -21 -48 -7 -28 7 -89 14 -134 14 l-82 0 4
28 c4 20 91 734 96 779 2 19 12 -30 84 -402z m-1720 175 c65 -85 75 -114 75
-225 0 -52 4 -95 9 -95 5 0 14 -14 21 -31 20 -47 3 -54 -68 -30 -74 25 -90 26
-158 4 -44 -13 -56 -14 -69 -3 -17 14 -11 50 11 63 11 6 14 39 14 141 0 90 4
137 13 149 10 13 98 87 104 87 1 0 23 -27 48 -60z m2546 -217 c-8 -17 -223
-489 -277 -610 l-23 -52 -53 50 c-29 28 -74 65 -100 82 l-48 30 253 258 c138
141 253 258 255 258 1 1 -1 -7 -7 -16z m-1433 -277 c100 -87 182 -161 182
-165 0 -3 -20 -26 -44 -49 -25 -24 -53 -63 -63 -87 -10 -25 -20 -45 -23 -45
-5 0 -334 544 -369 609 -10 18 9 5 60 -39 41 -36 156 -137 257 -224z m649
-202 c143 -36 281 -122 429 -266 100 -97 154 -176 154 -226 0 -18 -13 -8 -67
50 -36 40 -69 73 -72 73 -4 0 -24 -20 -46 -43 l-39 -44 80 -73 79 -73 -45 -12
c-25 -7 -65 -9 -90 -6 -57 8 -142 49 -173 84 -103 115 -99 112 -177 133 -96
26 -273 35 -365 20 -96 -16 -101 -20 -80 -62 10 -19 18 -35 19 -36 1 -2 36 4
77 13 162 34 327 -29 499 -191 78 -73 107 -85 156 -62 l33 16 11 -37 c18 -64
24 -69 65 -49 78 37 84 17 18 -54 -57 -61 -91 -80 -135 -77 -57 5 -49 -26 68
-302 116 -271 116 -270 48 -270 -93 0 -318 -58 -470 -120 -54 -22 -101 -37
-105 -32 -3 4 -21 50 -38 103 l-32 97 60 93 c33 51 59 94 58 96 -2 1 -30 -9
-63 -22 -35 -15 -79 -25 -110 -25 -66 0 -86 20 -92 95 l-4 55 30 0 c32 0 58
22 47 41 -5 7 -24 9 -58 5 -36 -5 -52 -4 -58 6 -15 24 -10 26 49 21 68 -6 106
13 83 41 -10 12 -31 16 -77 16 -78 0 -83 14 -18 53 26 16 43 32 38 36 -18 16
-104 43 -119 38 -8 -4 -15 -1 -15 6 0 12 25 153 35 195 8 32 -18 39 -51 13
-44 -34 -54 -28 -54 34 0 59 15 98 49 129 22 20 28 60 10 71 -5 4 -27 -4 -48
-18 -35 -23 -61 -64 -86 -132 l-7 -20 -8 20 c-17 41 -10 90 19 136 25 39 29
58 33 136 3 77 9 101 37 157 81 164 282 231 518 170z m1198 -82 c-17 -16 -130
-124 -251 -240 -214 -205 -222 -211 -228 -185 -4 16 -25 67 -48 116 -23 48
-39 89 -37 92 4 4 578 242 589 244 2 1 -9 -12 -25 -27z m-1878 -346 c1 -1 -5
-41 -13 -88 l-16 -87 -85 57 c-80 53 -84 58 -79 85 3 16 6 51 6 78 l0 49 93
-46 c50 -25 93 -47 94 -48z m1285 -480 c-7 -99 32 -202 174 -463 l46 -83 -79
0 -79 0 -94 181 c-52 100 -99 192 -104 206 -16 46 9 97 76 157 34 31 62 56 62
56 1 0 -1 -24 -2 -54z m-1189 -132 c38 -75 66 -138 63 -141 -2 -3 -36 -9 -75
-13 -165 -21 -259 -101 -316 -270 -14 -41 -44 -165 -67 -275 -59 -293 -108
-427 -203 -560 -47 -66 -132 -151 -122 -122 44 123 62 275 77 657 6 135 18
292 26 349 52 350 199 505 484 510 l65 1 68 -136z m137 -356 c88 -213 106
-244 152 -266 l41 -21 -28 -11 c-184 -70 -449 -220 -586 -332 l-56 -46 18 48
c18 48 29 104 69 347 32 197 71 285 153 339 51 34 79 42 143 43 l52 1 42 -102z"/>
<path d="M2800 2793 c-8 -3 -30 -12 -48 -19 l-32 -13 32 -65 32 -65 125 -3
c69 -2 128 -2 130 -1 8 4 29 128 23 134 -32 29 -211 51 -262 32z"/>
<path d="M3164 2665 c-13 -31 -24 -60 -24 -64 0 -7 155 -107 211 -137 4 -2 23
21 42 51 l36 54 -115 75 c-63 42 -117 76 -120 76 -3 0 -16 -25 -30 -55z"/>
<path d="M2618 2673 c-33 -35 -48 -73 -48 -124 l0 -39 51 40 c28 22 55 40 60
40 5 0 9 5 9 12 0 19 -32 98 -39 98 -4 0 -19 -12 -33 -27z"/>
<path d="M2815 2308 c-47 -17 -85 -47 -85 -68 0 -21 87 -93 104 -87 6 2 13 14
14 27 4 23 5 23 108 17 64 -4 114 -3 131 4 l28 10 -46 44 c-26 24 -63 48 -85
54 -48 13 -129 13 -169 -1z"/>
</g>
</svg>
